# Blender 5.1.2
# www.blender.org
o Cube
v 0.000000 0.000000 -1.000000
v -0.500000 0.000000 -0.866025
v -0.866025 0.000000 -0.500000
v -1.000000 0.000000 0.000000
v -0.866025 0.000000 0.500000
v -0.500000 0.000000 0.866025
v 0.000000 0.000000 1.000000
v 0.500000 0.000000 0.866025
v 0.866025 0.000000 0.500000
v 1.000000 0.000000 0.000000
v 0.866025 0.000000 -0.500000
v 0.500000 0.000000 -0.866025
v 0.000000 3.721152 -1.000000
v -0.500000 3.721152 -0.866025
v -0.866025 3.721152 -0.500000
v -1.000000 3.721152 0.000000
v -0.866025 3.721152 0.500000
v -0.500000 3.721152 0.866025
v 0.000000 3.721152 1.000000
v 0.500000 3.721152 0.866025
v 0.866025 3.721152 0.500000
v 1.000000 3.721152 0.000000
v 0.866025 3.721152 -0.500000
v 0.500000 3.721152 -0.866025
v -0.000000 4.562368 -0.643276
v -0.321638 4.562368 -0.557094
v -0.557094 4.562368 -0.321638
v -0.643276 4.562368 0.000000
v -0.557094 4.562368 0.321638
v -0.321638 4.562368 0.557094
v -0.000000 4.562368 0.643276
v 0.321638 4.562368 0.557094
v 0.557094 4.562368 0.321638
v 0.643276 4.562368 0.000000
v 0.557094 4.562368 -0.321638
v 0.321638 4.562368 -0.557094
v -0.000000 5.882207 -0.617472
v -0.308736 5.882207 -0.534747
v -0.534747 5.882207 -0.308736
v -0.617472 5.882207 0.000000
v -0.534747 5.882207 0.308736
v -0.308736 5.882207 0.534747
v -0.000000 5.882207 0.617472
v 0.308736 5.882207 0.534747
v 0.534747 5.882207 0.308736
v 0.617472 5.882207 0.000000
v 0.534747 5.882207 -0.308736
v 0.308736 5.882207 -0.534747
v 0.000000 7.426854 -0.380432
v -0.190216 7.426854 -0.329464
v -0.329464 7.426854 -0.190216
v -0.380432 7.426854 -0.000000
v -0.329464 7.426854 0.190216
v -0.190216 7.426854 0.329464
v 0.000000 7.426854 0.380432
v 0.190216 7.426854 0.329464
v 0.329464 7.426854 0.190216
v 0.380432 7.426854 -0.000000
v 0.329464 7.426854 -0.190216
v 0.190216 7.426854 -0.329464
v 0.000000 7.680669 -0.380432
v -0.190216 7.680669 -0.329464
v -0.329464 7.680669 -0.190216
v -0.380432 7.680669 -0.000000
v -0.329464 7.680669 0.190216
v -0.190216 7.680669 0.329464
v 0.000000 7.680669 0.380432
v 0.190216 7.680669 0.329464
v 0.329464 7.680669 0.190216
v 0.380432 7.680669 -0.000000
v 0.329464 7.680669 -0.190216
v 0.190216 7.680669 -0.329464
v -0.500000 0.000000 -0.866025
v 0.000000 0.000000 -1.000000
v 0.000000 0.000000 -1.000000
v -0.866025 0.000000 -0.500000
v -1.000000 0.000000 0.000000
v -1.000000 0.000000 0.000000
v -0.866025 0.000000 0.500000
v -0.500000 0.000000 0.866025
v 0.000000 0.000000 1.000000
v 0.000000 0.000000 1.000000
v 0.500000 0.000000 0.866025
v 0.866025 0.000000 0.500000
v 1.000000 0.000000 0.000000
v 1.000000 0.000000 0.000000
v 0.866025 0.000000 -0.500000
v 0.500000 0.000000 -0.866025
v -0.190216 7.680669 -0.329464
v 0.000000 7.680669 -0.380432
v -0.329464 7.680669 -0.190216
v -0.380432 7.680669 -0.000000
v -0.329464 7.680669 0.190216
v -0.190216 7.680669 0.329464
v 0.000000 7.680669 0.380432
v 0.190216 7.680669 0.329464
v 0.329464 7.680669 0.190216
v 0.380432 7.680669 -0.000000
v 0.329464 7.680669 -0.190216
v 0.190216 7.680669 -0.329464
vn -0.0000 1.0000 -0.0000
vn -0.0000 -0.1931 0.9812
vn 0.4906 -0.1931 0.8497
vn 0.8497 -0.1931 0.4906
vn 0.9812 -0.1931 -0.0000
vn 0.8497 -0.1931 -0.4906
vn 0.4906 -0.1931 -0.8497
vn -0.0000 -0.1931 -0.9812
vn -0.4906 -0.1931 -0.8497
vn -0.8497 -0.1931 -0.4906
vn -0.9812 -0.1931 -0.0000
vn -0.8497 -0.1931 0.4906
vn -0.4906 -0.1931 0.8497
vn -0.0000 -0.2154 0.9765
vn 0.4883 -0.2154 0.8457
vn 0.8457 -0.2154 0.4883
vn 0.9765 -0.2154 -0.0000
vn 0.8457 -0.2154 -0.4883
vn 0.4883 -0.2154 -0.8457
vn -0.0000 -0.2154 -0.9765
vn -0.4883 -0.2154 -0.8457
vn -0.8457 -0.2154 -0.4883
vn -0.9765 -0.2154 -0.0000
vn -0.8457 -0.2154 0.4883
vn -0.4883 -0.2154 0.8457
vn -0.0000 -0.0849 0.9964
vn 0.4982 -0.0849 0.8629
vn 0.8629 -0.0849 0.4982
vn 0.9964 -0.0849 -0.0000
vn 0.8629 -0.0849 -0.4982
vn 0.4982 -0.0849 -0.8629
vn -0.0000 -0.0849 -0.9964
vn -0.4982 -0.0849 -0.8629
vn -0.8629 -0.0849 -0.4982
vn -0.9964 -0.0849 -0.0000
vn -0.8629 -0.0849 0.4982
vn -0.4982 -0.0849 0.8629
vn -0.0000 -0.0770 0.9970
vn 0.4985 -0.0770 0.8635
vn 0.8635 -0.0770 0.4985
vn 0.9970 -0.0770 -0.0000
vn 0.8635 -0.0770 -0.4985
vn 0.4985 -0.0770 -0.8635
vn -0.0000 -0.0770 -0.9970
vn -0.4985 -0.0770 -0.8635
vn -0.8635 -0.0770 -0.4985
vn -0.9970 -0.0770 -0.0000
vn -0.8635 -0.0770 0.4985
vn -0.4985 -0.0770 0.8635
vn -0.0000 -1.0000 -0.0000
vn 0.5000 -0.0000 0.8660
vn 0.2588 -0.0000 0.9659
vn -0.2588 -0.0000 0.9659
vn 0.8660 -0.0000 0.5000
vn 0.9659 -0.0000 0.2588
vn 0.9659 -0.0000 -0.2588
vn 0.8660 -0.0000 -0.5000
vn 0.5000 -0.0000 -0.8660
vn 0.2588 -0.0000 -0.9659
vn -0.2588 -0.0000 -0.9659
vn -0.5000 -0.0000 -0.8660
vn -0.8660 -0.0000 -0.5000
vn -0.9659 -0.0000 -0.2588
vn -0.9659 -0.0000 0.2588
vn -0.8660 -0.0000 0.5000
vn -0.5000 -0.0000 0.8660
vn -0.0000 -0.0000 1.0000
vn 1.0000 -0.0000 -0.0000
vn -0.0000 -0.0000 -1.0000
vn -1.0000 -0.0000 -0.0000
vt 0.416559 0.023780
vt 0.472621 0.478970
vt 0.472621 0.023780
vt 0.641614 0.023780
vt 0.698068 0.478970
vt 0.698068 0.023780
vt 0.136709 0.023780
vt 0.192836 0.478970
vt 0.192836 0.023780
vt 0.528830 0.023780
vt 0.585177 0.478970
vt 0.585177 0.023780
vt 0.248826 0.023780
vt 0.304729 0.478970
vt 0.304729 0.023780
vt 0.360615 0.023780
vt 0.416560 0.478970
vt 0.080436 0.023780
vt 0.136709 0.478970
vt 0.528830 0.478970
vt 0.248826 0.478970
vt 0.641613 0.478970
vt 0.360616 0.478970
vt 0.024041 0.023780
vt 0.080436 0.478970
vt 0.528546 0.581872
vt 0.360495 0.581872
vt 0.193116 0.581872
vt 0.584991 0.581872
vt 0.698191 0.581872
vt 0.416315 0.581872
vt 0.249008 0.581872
vt 0.641577 0.581872
vt 0.024164 0.581872
vt 0.080684 0.581872
vt 0.472317 0.581872
vt 0.304765 0.581872
vt 0.137015 0.581872
vt 0.137051 0.743321
vt 0.528513 0.743321
vt 0.360481 0.743321
vt 0.193149 0.743321
vt 0.584969 0.743321
vt 0.698205 0.743321
vt 0.416286 0.743321
vt 0.249029 0.743321
vt 0.641573 0.743321
vt 0.024179 0.743321
vt 0.080713 0.743321
vt 0.472281 0.743321
vt 0.304769 0.743321
vt 0.137608 0.932271
vt 0.527995 0.932271
vt 0.304833 0.932271
vt 0.360264 0.932271
vt 0.193659 0.932271
vt 0.584629 0.932271
vt 0.698431 0.932271
vt 0.415844 0.932271
vt 0.249358 0.932271
vt 0.641506 0.932271
vt 0.081168 0.932271
vt 0.471727 0.932271
vt 0.304833 0.963318
vt 0.137608 0.963318
vt 0.527995 0.963318
vt 0.360264 0.963318
vt 0.193659 0.963318
vt 0.584629 0.963318
vt 0.698431 0.963318
vt 0.415844 0.963318
vt 0.249358 0.963318
vt 0.641506 0.963318
vt 0.024405 0.932271
vt 0.081168 0.963318
vt 0.471727 0.963318
vt 0.877111 0.512030
vt 0.927516 0.541132
vt 0.956618 0.591537
vt 0.818908 0.512030
vt 0.956618 0.649740
vt 0.768502 0.541132
vt 0.927517 0.700146
vt 0.739401 0.591537
vt 0.877111 0.729247
vt 0.818908 0.729247
vt 0.810861 0.144610
vt 0.977855 0.311604
vt 0.749737 0.372728
vt 0.768503 0.700146
vt 0.739401 0.649740
vt 0.714447 0.311604
vt 0.714447 0.241024
vt 0.749737 0.179900
vt 0.881441 0.144610
vt 0.942565 0.179900
vt 0.977855 0.241024
vt 0.942565 0.372728
vt 0.881441 0.408018
vt 0.810861 0.408018
vt 0.024041 0.478970
vt 0.024405 0.963318
s 1
f 84/1/62 22/2/11 85/3/63
f 74/4/52 14/5/3 73/6/51
f 78/7/56 17/8/6 79/9/57
f 87/10/65 24/11/13 88/12/66
f 80/13/58 19/14/8 81/15/59
f 83/16/61 21/17/10 84/1/62
f 76/18/54 16/19/5 77/7/55
f 86/3/64 23/20/12 87/10/65
f 79/9/57 18/21/7 80/13/58
f 88/12/66 13/22/2 75/4/53
f 82/15/60 20/23/9 83/16/61
f 73/24/51 15/25/4 76/18/54
f 22/2/11 35/26/24 23/20/12
f 19/14/8 32/27/21 20/23/9
f 16/19/5 29/28/18 17/8/6
f 24/11/13 35/26/24 36/29/25
f 13/22/2 26/30/15 14/5/3
f 21/17/10 32/27/21 33/31/22
f 18/21/7 29/28/18 30/32/19
f 24/11/13 25/33/14 13/22/2
f 15/25/4 26/34/15 27/35/16
f 21/17/10 34/36/23 22/2/11
f 18/21/7 31/37/20 19/14/8
f 15/25/4 28/38/17 16/19/5
f 27/35/16 40/39/29 28/38/17
f 34/36/23 47/40/36 35/26/24
f 31/37/20 44/41/33 32/27/21
f 28/38/17 41/42/30 29/28/18
f 36/29/25 47/40/36 48/43/37
f 25/33/14 38/44/27 26/30/15
f 33/31/22 44/41/33 45/45/34
f 30/32/19 41/42/30 42/46/31
f 36/29/25 37/47/26 25/33/14
f 27/35/16 38/48/27 39/49/28
f 33/31/22 46/50/35 34/36/23
f 30/32/19 43/51/32 31/37/20
f 39/49/28 52/52/41 40/39/29
f 46/50/35 59/53/48 47/40/36
f 44/41/33 55/54/44 56/55/45
f 41/42/30 52/52/41 53/56/42
f 47/40/36 60/57/49 48/43/37
f 37/47/26 50/58/39 38/44/27
f 44/41/33 57/59/46 45/45/34
f 41/42/30 54/60/43 42/46/31
f 48/43/37 49/61/38 37/47/26
f 38/48/27 51/62/40 39/49/28
f 46/50/35 57/59/46 58/63/47
f 42/46/31 55/54/44 43/51/32
f 54/60/43 95/64/69 55/54/44
f 51/62/40 92/65/68 52/52/41
f 58/63/47 99/66/65 59/53/48
f 55/54/44 96/67/61 56/55/45
f 52/52/41 93/68/57 53/56/42
f 59/53/48 100/69/66 60/57/49
f 49/61/38 89/70/51 50/58/39
f 56/55/45 97/71/62 57/59/46
f 53/56/42 94/72/58 54/60/43
f 60/57/49 90/73/67 49/61/38
f 50/74/39 91/75/54 51/62/40
f 57/59/46 98/76/70 58/63/47
f 62/77/50 61/78/50 72/79/50
f 63/80/50 62/77/50 72/79/50
f 63/80/50 72/79/50 71/81/50
f 64/82/50 63/80/50 71/81/50
f 64/82/50 71/81/50 70/83/50
f 65/84/50 64/82/50 70/83/50
f 65/84/50 70/83/50 69/85/50
f 69/85/50 68/86/50 65/84/50
f 4/87/1 8/88/1 12/89/1
f 67/90/50 66/91/50 68/86/50
f 68/86/50 66/91/50 65/84/50
f 12/89/1 1/92/1 2/93/1
f 2/93/1 3/94/1 12/89/1
f 3/94/1 4/87/1 12/89/1
f 4/87/1 5/95/1 6/96/1
f 6/96/1 7/97/1 4/87/1
f 7/97/1 8/88/1 4/87/1
f 8/88/1 9/98/1 10/99/1
f 10/99/1 11/100/1 12/89/1
f 8/88/1 10/99/1 12/89/1
f 84/1/62 21/17/10 22/2/11
f 74/4/52 13/22/2 14/5/3
f 78/7/56 16/19/5 17/8/6
f 87/10/65 23/20/12 24/11/13
f 80/13/58 18/21/7 19/14/8
f 83/16/61 20/23/9 21/17/10
f 76/18/54 15/25/4 16/19/5
f 86/3/64 22/2/11 23/20/12
f 79/9/57 17/8/6 18/21/7
f 88/12/66 24/11/13 13/22/2
f 82/15/60 19/14/8 20/23/9
f 73/24/51 14/101/3 15/25/4
f 22/2/11 34/36/23 35/26/24
f 19/14/8 31/37/20 32/27/21
f 16/19/5 28/38/17 29/28/18
f 24/11/13 23/20/12 35/26/24
f 13/22/2 25/33/14 26/30/15
f 21/17/10 20/23/9 32/27/21
f 18/21/7 17/8/6 29/28/18
f 24/11/13 36/29/25 25/33/14
f 15/25/4 14/101/3 26/34/15
f 21/17/10 33/31/22 34/36/23
f 18/21/7 30/32/19 31/37/20
f 15/25/4 27/35/16 28/38/17
f 27/35/16 39/49/28 40/39/29
f 34/36/23 46/50/35 47/40/36
f 31/37/20 43/51/32 44/41/33
f 28/38/17 40/39/29 41/42/30
f 36/29/25 35/26/24 47/40/36
f 25/33/14 37/47/26 38/44/27
f 33/31/22 32/27/21 44/41/33
f 30/32/19 29/28/18 41/42/30
f 36/29/25 48/43/37 37/47/26
f 27/35/16 26/34/15 38/48/27
f 33/31/22 45/45/34 46/50/35
f 30/32/19 42/46/31 43/51/32
f 39/49/28 51/62/40 52/52/41
f 46/50/35 58/63/47 59/53/48
f 44/41/33 43/51/32 55/54/44
f 41/42/30 40/39/29 52/52/41
f 47/40/36 59/53/48 60/57/49
f 37/47/26 49/61/38 50/58/39
f 44/41/33 56/55/45 57/59/46
f 41/42/30 53/56/42 54/60/43
f 48/43/37 60/57/49 49/61/38
f 38/48/27 50/74/39 51/62/40
f 46/50/35 45/45/34 57/59/46
f 42/46/31 54/60/43 55/54/44
f 54/60/43 94/72/58 95/64/69
f 51/62/40 91/75/54 92/65/68
f 58/63/47 98/76/70 99/66/65
f 55/54/44 95/64/69 96/67/61
f 52/52/41 92/65/68 93/68/57
f 59/53/48 99/66/65 100/69/66
f 49/61/38 90/73/67 89/70/51
f 56/55/45 96/67/61 97/71/62
f 53/56/42 93/68/57 94/72/58
f 60/57/49 100/69/66 90/73/67
f 50/74/39 89/102/51 91/75/54
f 57/59/46 97/71/62 98/76/70
