# Blender 5.1.2
# www.blender.org
o Building
v 3.000000 3.000000 -2.500000
v 3.000000 0.000000 -2.500000
v 3.000000 3.000000 1.500000
v 3.000000 0.000000 1.500000
v -2.000000 3.000000 -2.500000
v -2.000000 0.000000 -2.500000
v -2.000000 3.000000 1.500000
v -2.000000 0.000000 1.500000
v 6.000000 3.000000 -2.500000
v 6.000000 0.000000 -2.500000
v 6.000000 3.000000 1.500000
v 6.000000 0.000000 1.500000
v 3.000000 3.000000 -9.500000
v 3.000000 0.000000 -9.500000
v -2.000000 3.000000 -9.500000
v -2.000000 0.000000 -9.500000
v 6.000000 3.000000 -9.500000
v 6.000000 0.000000 -9.500000
v -4.000000 3.000000 -2.500000
v -4.000000 0.000000 -2.500000
v -4.000000 3.000000 -9.500000
v -4.000000 0.000000 -9.500000
v 6.000000 0.000000 -5.500000
v 6.000000 3.000000 -5.500000
v -8.000000 0.000000 -9.500000
v -8.000000 3.000000 -9.500000
v -4.000000 3.000000 -5.500000
v -4.000000 0.000000 -5.500000
v 3.000000 4.000000 -2.500000
v 3.000000 4.000000 1.500000
v -2.000000 4.000000 -2.500000
v 6.000000 4.000000 -2.500000
v 6.000000 4.000000 1.500000
v -2.000000 4.000000 -9.500000
v 3.000000 4.000000 -9.500000
v 6.000000 4.000000 -9.500000
v 6.000000 4.000000 -5.500000
v 3.000000 4.000000 -5.500000
v -2.000000 4.000000 -5.500000
v -4.000000 4.000000 -5.500000
v -4.000000 4.000000 -9.500000
v -4.000000 4.000000 -2.500000
v -8.000000 3.000000 -5.500000
v -8.000000 0.000000 -5.500000
v -8.000000 4.000000 -9.500000
v -8.000000 4.000000 -5.500000
v -2.000000 0.000000 -1.500000
v 3.000000 3.000000 -1.500000
v -2.000000 3.000000 -1.500000
v 3.000000 0.000000 -1.500000
v 6.000000 3.000000 -1.500000
v 6.000000 0.000000 -1.500000
v 3.000000 4.000000 -1.500000
v 6.000000 4.000000 -1.500000
v 2.000000 0.000000 -2.500000
v 2.000000 3.000000 1.500000
v 2.000000 0.000000 1.500000
v 2.000000 3.000000 -2.500000
v 2.000000 0.000000 -9.500000
v 2.000000 3.000000 -9.500000
v 2.000000 4.000000 -2.500000
v 2.000000 4.000000 -9.500000
v 2.000000 4.000000 -5.500000
v 2.000000 0.000000 -1.500000
v 2.000000 3.000000 -1.500000
v -2.000000 1.000000 1.500000
v 3.000000 1.000000 1.500000
v -2.000000 1.000000 -2.500000
v 6.000000 1.000000 -2.500000
v 6.000000 1.000000 1.500000
v 3.000000 1.000000 -9.500000
v -2.000000 1.000000 -9.500000
v 6.000000 1.000000 -9.500000
v -4.000000 1.000000 -2.500000
v -4.000000 1.000000 -9.500000
v -4.000000 1.000000 -5.500000
v 6.000000 1.000000 -5.500000
v -8.000000 1.000000 -9.500000
v -8.000000 1.000000 -5.500000
v 6.000000 1.000000 -1.500000
v -2.000000 1.000000 -1.500000
v 2.000000 1.000000 -9.500000
v 2.000000 1.000000 1.500000
v 2.000000 1.000000 -2.500000
v -2.000000 1.000000 -2.500000
v 2.000000 1.000000 1.500000
v 3.000000 1.000000 1.500000
v 3.000000 1.000000 -1.500000
v 3.000000 1.000000 -2.500000
v -2.000000 1.000000 -1.500000
v 2.000000 1.000000 -1.500000
vn -0.0000 -1.0000 -0.0000
vn -0.0000 -0.0000 -1.0000
vn 1.0000 -0.0000 -0.0000
vn -1.0000 -0.0000 -0.0000
vn -0.0000 -0.0000 1.0000
vn -0.0000 1.0000 -0.0000
vt 1.033937 1.033935
vt 1.475436 0.445269
vt 1.475436 1.033935
vt -0.584895 1.622602
vt -0.879229 1.033936
vt -0.584895 1.033936
vt 1.475436 2.026394
vt 1.181103 1.879228
vt 1.475436 1.879228
vt 0.886770 2.724520
vt 1.033936 2.283020
vt 1.033936 2.724520
vt -0.584895 0.445269
vt -0.437729 0.886769
vt -0.584895 0.886769
vt -1.026395 0.886769
vt -0.879229 0.445269
vt -0.879229 0.886769
vt -1.430187 2.064101
vt -1.724520 1.622602
vt -1.430187 1.622602
vt -0.841521 -1.871689
vt -0.252855 -1.283022
vt -0.841521 -1.283022
vt 2.320728 -0.252856
vt 2.026395 -0.400023
vt 2.320728 -0.400023
vt 2.320728 0.188643
vt 2.026395 -0.252856
vt 1.879229 0.592436
vt 2.026396 0.445269
vt 2.026396 0.592436
vt -1.430187 0.445269
vt -1.283020 1.033936
vt -1.430187 1.033936
vt 1.879229 1.475435
vt 2.026396 1.181102
vt 2.026396 1.475435
vt 1.879229 -1.871687
vt 2.026396 -1.283022
vt 1.879229 -1.283022
vt 2.320728 -1.283022
vt 2.467894 -0.988688
vt 2.320728 -0.988688
vt 2.320728 1.475435
vt 2.320728 1.181102
vt 0.188645 2.724520
vt 0.630144 2.430187
vt 0.630144 2.724520
vt 1.879229 -0.400023
vt 2.026396 -0.988688
vt -1.283020 1.475435
vt -1.430187 1.475435
vt 1.879229 -0.988688
vt 0.188645 2.283020
vt 0.188645 2.430187
vt -0.252855 -0.252856
vt -0.841521 0.188643
vt -0.841521 -0.252856
vt -1.430187 0.188643
vt -1.871687 -0.252856
vt -1.430187 -0.252856
vt -0.252855 -0.988688
vt -0.841521 -0.988688
vt -0.252855 -0.400023
vt -0.841521 -0.400023
vt -1.283020 -0.252856
vt -1.283020 -0.400023
vt -1.283020 -1.283022
vt -1.283020 -0.988688
vt -1.283020 0.188643
vt 2.724520 0.260396
vt 2.871687 -0.181104
vt 2.871687 0.260396
vt -1.871687 1.622602
vt -1.724520 1.475435
vt -1.871687 1.033935
vt -1.724520 0.445269
vt -1.724520 1.033936
vt -1.871687 1.475435
vt 1.879229 0.188643
vt 2.026395 0.188643
vt 0.188644 2.026394
vt 0.335811 1.437728
vt 0.335811 2.026394
vt 0.630144 2.026394
vt 0.630144 1.437728
vt 2.320728 -1.871689
vt 2.467894 -1.283022
vt -1.026395 2.026394
vt -0.437729 1.879227
vt -0.437729 2.026394
vt -1.026395 2.320726
vt -0.437729 2.320726
vt -1.871687 2.064101
vt -1.724520 2.064101
vt 2.724520 0.407562
vt 2.871687 0.407562
vt 2.577354 2.467894
vt 2.724522 1.879228
vt 2.724520 2.467894
vt 1.181103 1.437728
vt 1.475436 1.437728
vt 1.622602 0.445269
vt 1.622602 1.033935
vt 1.475436 1.181102
vt 1.622602 1.181102
vt 2.724520 -1.430189
vt 2.871687 -1.871689
vt 2.871687 -1.430189
vt 1.879229 -0.252856
vt 1.879229 1.181102
vt 1.033937 1.181102
vt 2.467894 -0.400023
vt 1.622602 1.879228
vt 1.622602 1.437728
vt -1.283020 1.622602
vt -1.026395 2.467894
vt -0.437729 2.467894
vt 2.026396 -1.871687
vt 0.777310 2.026394
vt 0.777310 1.437728
vt 0.188645 2.871685
vt 0.630144 2.871685
vt 2.467896 1.475435
vt 2.467896 1.181102
vt 2.467894 0.188643
vt 2.467894 -0.252856
vt -1.283020 2.064101
vt -0.437729 1.622602
vt -0.437729 1.033936
vt 0.188645 0.592436
vt 0.630144 0.445269
vt 0.630144 0.592436
vt 0.777311 0.445269
vt 0.777311 0.592436
vt 0.630144 1.181102
vt 0.777310 1.181102
vt 2.724520 -0.437730
vt 2.871687 -1.026396
vt 2.871687 -0.437730
vt 2.724520 -1.283022
vt 2.871687 -1.283022
vt 2.577354 1.879228
vt 2.724522 1.732060
vt 1.033937 0.445269
vt -0.879229 1.622602
vt 1.181103 2.026394
vt 0.886770 2.283020
vt -0.437729 0.445269
vt -1.026395 0.445269
vt -0.252855 -1.871689
vt 1.879229 0.445269
vt -1.283020 0.445269
vt 0.630144 2.283020
vt -0.252855 0.188643
vt -1.871687 0.188643
vt 2.724520 -0.181104
vt -1.871687 0.445269
vt 0.188645 1.437728
vt 2.467894 -1.871689
vt -1.026395 1.879227
vt 2.724520 -1.871689
vt 0.188645 0.445269
vt 2.724520 -1.026396
vt 2.577354 1.732060
s 0
f 56/1/1 49/2/1 65/3/1
f 66/4/2 56/5/2 83/6/2
f 68/7/3 49/8/3 81/9/3
f 86/10/4 64/11/4 57/12/4
f 70/13/2 4/14/2 67/15/2
f 30/16/2 11/17/2 3/18/2
f 70/19/4 51/20/4 80/21/4
f 46/22/1 41/23/1 40/24/1
f 71/25/5 60/26/5 82/27/5
f 73/28/5 13/29/5 71/25/5
f 61/30/2 1/31/2 58/32/2
f 73/33/4 23/34/4 77/35/4
f 42/36/2 5/37/2 19/38/2
f 45/39/5 21/40/5 41/41/5
f 75/42/5 16/43/5 72/44/5
f 74/45/2 5/37/2 68/46/2
f 76/47/3 19/48/3 74/49/3
f 62/50/5 15/51/5 60/26/5
f 77/35/4 10/52/4 69/53/4
f 34/54/5 21/40/5 15/51/5
f 40/55/3 19/48/3 27/56/3
f 35/57/1 37/58/1 38/59/1
f 54/60/1 30/61/1 53/62/1
f 40/24/1 34/63/1 39/64/1
f 62/65/1 38/59/1 63/66/1
f 63/66/1 29/67/1 61/68/1
f 42/69/1 39/64/1 31/70/1
f 38/59/1 32/71/1 29/67/1
f 53/72/3 3/73/3 48/74/3
f 54/75/4 9/76/4 51/20/4
f 37/77/4 17/78/4 24/79/4
f 32/80/4 24/79/4 9/76/4
f 36/81/5 13/29/5 17/82/5
f 45/83/3 43/84/3 26/85/3
f 78/86/3 43/84/3 79/87/3
f 78/88/5 22/89/5 75/42/5
f 43/90/2 40/91/2 27/92/2
f 79/93/2 27/92/2 76/94/2
f 33/95/4 51/20/4 11/96/4
f 29/97/3 48/74/3 1/98/3
f 32/71/1 53/62/1 29/67/1
f 80/21/4 9/76/4 69/53/4
f 85/99/2 55/100/2 6/101/2
f 81/9/3 7/102/3 66/103/3
f 65/3/1 5/104/1 58/105/1
f 48/106/1 58/105/1 1/107/1
f 88/108/3 4/109/3 50/110/3
f 39/64/1 61/68/1 31/70/1
f 34/63/1 63/66/1 39/64/1
f 35/111/5 60/26/5 13/29/5
f 31/112/2 58/32/2 5/37/2
f 82/27/5 15/51/5 72/44/5
f 83/6/2 3/18/2 67/15/2
f 3/113/1 65/3/1 48/106/1
f 59/114/5 72/44/5 16/43/5
f 47/115/3 66/103/3 8/116/3
f 52/117/4 69/53/4 10/52/4
f 44/118/2 76/94/2 28/119/2
f 26/120/5 75/42/5 21/40/5
f 25/121/3 79/87/3 44/122/3
f 24/79/4 69/53/4 9/76/4
f 28/123/3 74/49/3 20/124/3
f 20/125/2 68/46/2 6/126/2
f 21/40/5 72/44/5 15/51/5
f 17/78/4 77/35/4 24/79/4
f 18/127/5 71/25/5 14/128/5
f 14/128/5 82/27/5 59/114/5
f 12/129/4 80/21/4 52/117/4
f 11/17/2 67/15/2 3/18/2
f 8/130/2 83/6/2 57/131/2
f 86/132/6 88/133/6 91/134/6
f 91/134/6 89/135/6 84/136/6
f 90/137/6 84/136/6 85/138/6
f 91/139/5 47/140/5 64/141/5
f 89/142/3 50/110/3 2/143/3
f 84/144/2 2/145/2 55/100/2
f 56/1/1 7/146/1 49/2/1
f 66/4/2 7/147/2 56/5/2
f 68/7/3 5/148/3 49/8/3
f 86/10/4 91/149/4 64/11/4
f 70/13/2 12/150/2 4/14/2
f 30/16/2 33/151/2 11/17/2
f 70/19/4 11/96/4 51/20/4
f 46/22/1 45/152/1 41/23/1
f 71/25/5 13/29/5 60/26/5
f 73/28/5 17/82/5 13/29/5
f 61/30/2 29/153/2 1/31/2
f 73/33/4 18/154/4 23/34/4
f 42/36/2 31/112/2 5/37/2
f 45/39/5 26/120/5 21/40/5
f 75/42/5 22/89/5 16/43/5
f 74/45/2 19/38/2 5/37/2
f 76/47/3 27/56/3 19/48/3
f 62/50/5 34/54/5 15/51/5
f 77/35/4 23/34/4 10/52/4
f 34/54/5 41/41/5 21/40/5
f 40/55/3 42/155/3 19/48/3
f 35/57/1 36/156/1 37/58/1
f 54/60/1 33/157/1 30/61/1
f 40/24/1 41/23/1 34/63/1
f 62/65/1 35/57/1 38/59/1
f 63/66/1 38/59/1 29/67/1
f 42/69/1 40/24/1 39/64/1
f 38/59/1 37/58/1 32/71/1
f 53/72/3 30/158/3 3/73/3
f 54/75/4 32/80/4 9/76/4
f 37/77/4 36/159/4 17/78/4
f 32/80/4 37/77/4 24/79/4
f 36/81/5 35/111/5 13/29/5
f 45/83/3 46/160/3 43/84/3
f 78/86/3 26/85/3 43/84/3
f 78/88/5 25/161/5 22/89/5
f 43/90/2 46/162/2 40/91/2
f 79/93/2 43/90/2 27/92/2
f 33/95/4 54/75/4 51/20/4
f 29/97/3 53/72/3 48/74/3
f 32/71/1 54/60/1 53/62/1
f 80/21/4 51/20/4 9/76/4
f 85/99/2 84/144/2 55/100/2
f 81/9/3 49/8/3 7/102/3
f 65/3/1 49/2/1 5/104/1
f 48/106/1 65/3/1 58/105/1
f 88/108/3 87/163/3 4/109/3
f 39/64/1 63/66/1 61/68/1
f 34/63/1 62/65/1 63/66/1
f 35/111/5 62/50/5 60/26/5
f 31/112/2 61/30/2 58/32/2
f 82/27/5 60/26/5 15/51/5
f 83/6/2 56/5/2 3/18/2
f 3/113/1 56/1/1 65/3/1
f 59/114/5 82/27/5 72/44/5
f 47/115/3 81/9/3 66/103/3
f 52/117/4 80/21/4 69/53/4
f 44/118/2 79/93/2 76/94/2
f 26/120/5 78/88/5 75/42/5
f 25/121/3 78/86/3 79/87/3
f 24/79/4 77/35/4 69/53/4
f 28/123/3 76/47/3 74/49/3
f 20/125/2 74/45/2 68/46/2
f 21/40/5 75/42/5 72/44/5
f 17/78/4 73/33/4 77/35/4
f 18/127/5 73/28/5 71/25/5
f 14/128/5 71/25/5 82/27/5
f 12/129/4 70/19/4 80/21/4
f 11/17/2 70/13/2 67/15/2
f 8/130/2 66/4/2 83/6/2
f 86/132/6 87/164/6 88/133/6
f 91/134/6 88/133/6 89/135/6
f 90/137/6 91/134/6 84/136/6
f 91/139/5 90/165/5 47/140/5
f 89/142/3 88/108/3 50/110/3
f 84/144/2 89/166/2 2/145/2
