# Blender 5.1.2
# www.blender.org
o Ceiling
v 3.000000 3.000000 -2.500000
v 3.000000 3.000000 1.500000
v -2.000000 3.000000 -2.500000
v -2.000000 3.000000 1.500000
v 3.000000 4.000000 -2.500000
v 3.000000 4.000000 1.500000
v 6.000000 4.000000 -2.500000
v 6.000000 4.000000 1.500000
v 3.000000 4.000000 -9.500000
v 6.000000 4.000000 -9.500000
v 6.000000 4.000000 -5.500000
v 3.000000 4.000000 -5.500000
v -4.000000 4.000000 -5.500000
v -4.000000 4.000000 -9.500000
v -4.000000 4.000000 -2.500000
v -8.000000 4.000000 -9.500000
v -8.000000 4.000000 -5.500000
vn -0.0000 -1.0000 -0.0000
vt 1.622602 0.445269
vt 1.033937 1.181102
vt 1.033937 0.445269
vt -0.841521 -1.871689
vt -0.252855 -1.283022
vt -0.841521 -1.283022
vt -0.252855 -0.252856
vt -0.841521 0.188643
vt -0.841521 -0.252856
vt -1.283020 -0.252856
vt -1.283020 0.188643
vt -1.871687 -0.252856
vt 1.622602 1.181102
vt -0.252855 -1.871689
vt -0.252855 0.188643
vt -1.283020 -1.283022
vt -1.871687 0.188643
s 0
f 3/1/1 2/2/1 4/3/1
f 17/4/1 14/5/1 13/6/1
f 9/7/1 11/8/1 12/9/1
f 5/10/1 13/6/1 12/9/1
f 9/7/1 13/6/1 14/5/1
f 7/11/1 6/12/1 5/10/1
f 12/9/1 7/11/1 5/10/1
f 3/1/1 1/13/1 2/2/1
f 17/4/1 16/14/1 14/5/1
f 9/7/1 10/15/1 11/8/1
f 5/10/1 15/16/1 13/6/1
f 9/7/1 12/9/1 13/6/1
f 7/11/1 8/17/1 6/12/1
f 12/9/1 11/8/1 7/11/1
