# Blender 5.1.2
# www.blender.org
o Counter
v 2.000000 0.900000 1.500000
v -2.000000 1.000000 -2.500000
v 2.000000 1.000000 1.500000
v 3.000000 1.000000 1.500000
v -2.000000 0.900000 -2.500000
v 3.000000 1.000000 -2.500000
v -2.000000 1.000000 -1.500000
v 2.000000 1.000000 -1.500000
v 3.000000 0.900000 1.500000
v 3.000000 0.900000 -2.500000
v -2.000000 0.900000 -1.500000
v 2.000000 0.900000 -1.500000
v 2.900000 0.900000 1.500000
v 2.900000 0.900000 -2.400000
v -2.000000 0.900000 -2.400000
v 2.100000 0.900000 1.500000
v 2.100000 0.900000 -1.600000
v -2.000000 0.900000 -1.600000
v 2.900000 0.000000 1.500000
v 2.900000 0.000000 -2.400000
v -2.000000 0.000000 -2.400000
v 2.100000 0.000000 1.500000
v 2.100000 0.000000 -1.600000
v -2.000000 0.000000 -1.600000
vn -0.0000 1.0000 -0.0000
vn 1.0000 -0.0000 -0.0000
vn -0.0000 -0.0000 -1.0000
vn -1.0000 -0.0000 -0.0000
vn -0.0000 -0.0000 1.0000
vn -0.0000 -1.0000 -0.0000
vt -0.213044 -0.417746
vt -0.955521 -3.387650
vt -0.213045 -3.387650
vt -3.607922 -3.387650
vt -3.533674 -0.417746
vt -3.607922 -0.417746
vt -3.533674 3.294636
vt -3.607922 3.294636
vt 2.014385 0.324730
vt -0.955521 0.324731
vt -1.247384 -1.160221
vt -1.321632 -3.387650
vt -1.247385 -3.387650
vt -1.247382 1.809685
vt -1.321631 -1.160221
vt 2.014383 0.616593
vt -0.881274 0.690840
vt -0.955521 0.616592
vt -0.955521 4.328972
vt -0.881273 4.328972
vt 2.380493 -3.313399
vt 4.607922 -3.387650
vt 4.607922 -3.313403
vt 2.306246 -0.343489
vt 2.306246 -3.387646
vt -2.573584 0.250483
vt -3.241812 -3.387650
vt -2.573584 -3.387650
vt -2.573584 3.146141
vt -3.241812 0.250483
vt -1.613493 1.958179
vt -2.281722 -1.085974
vt -1.613493 -1.085974
vt -2.281722 -3.387650
vt -1.613494 -3.387650
vt -3.533674 -3.387650
vt 2.014385 -0.417746
vt -1.321630 1.809685
vt 2.014384 0.690841
vt 2.380494 -0.343489
vt -3.241812 3.146141
vt -2.281722 1.958179
s 0
f 8/1/1 2/2/1 7/3/1
f 4/4/2 10/5/2 6/6/2
f 6/6/3 5/7/3 2/8/3
f 8/1/1 4/9/1 6/10/1
f 8/11/4 1/12/4 3/13/4
f 7/14/5 12/15/5 8/11/5
f 9/16/6 14/17/6 10/18/6
f 5/19/6 14/17/6 15/20/6
f 12/21/6 16/22/6 1/23/6
f 12/21/6 18/24/6 17/25/6
f 14/26/3 21/27/3 15/28/3
f 13/29/2 20/30/2 14/26/2
f 18/31/5 23/32/5 17/33/5
f 17/33/4 22/34/4 16/35/4
f 8/1/1 6/10/1 2/2/1
f 4/4/2 9/36/2 10/5/2
f 6/6/3 10/5/3 5/7/3
f 8/1/1 3/37/1 4/9/1
f 8/11/4 12/15/4 1/12/4
f 7/14/5 11/38/5 12/15/5
f 9/16/6 13/39/6 14/17/6
f 5/19/6 10/18/6 14/17/6
f 12/21/6 17/25/6 16/22/6
f 12/21/6 11/40/6 18/24/6
f 14/26/3 20/30/3 21/27/3
f 13/29/2 19/41/2 20/30/2
f 18/31/5 24/42/5 23/32/5
f 17/33/4 23/32/4 22/34/4
