# Blender 5.1.2
# www.blender.org
o Floor
v -8.000000 0.000000 -5.500000
v -4.000000 0.000000 -5.500000
v -4.000000 0.000000 -2.500000
v -2.000000 0.000000 -5.500000
v -2.000000 0.000000 -2.500000
v -2.000000 0.000000 1.500000
v 6.000000 0.000000 -5.500000
v 6.000000 0.000000 -2.500000
v 6.000000 0.000000 1.500000
v -8.000000 0.000000 -9.500000
v -4.000000 0.000000 -9.500000
v -2.000000 0.000000 -9.500000
v 6.000000 0.000000 -9.500000
vn -0.0000 1.0000 -0.0000
vt -0.500000 -0.250000
vt -1.500000 1.250000
vt -1.500000 -0.250000
vt 3.500000 -2.250000
vt -0.500000 -2.250000
vt 3.500000 -0.250000
vt -0.500000 1.250000
vt 3.500000 1.250000
vt -0.500000 3.250000
vt -1.500000 3.250000
vt -3.500000 3.250000
vt -3.500000 1.250000
vt 3.500000 3.250000
s 0
f 5/1/1 2/2/1 3/3/1
f 9/4/1 5/1/1 6/5/1
f 8/6/1 4/7/1 5/1/1
f 7/8/1 12/9/1 4/7/1
f 4/7/1 11/10/1 2/2/1
f 2/2/1 10/11/1 1/12/1
f 5/1/1 4/7/1 2/2/1
f 9/4/1 8/6/1 5/1/1
f 8/6/1 7/8/1 4/7/1
f 7/8/1 13/13/1 12/9/1
f 4/7/1 12/9/1 11/10/1
f 2/2/1 11/10/1 10/11/1
