# Blender 5.1.2
# www.blender.org
o Table
v -0.500000 0.600000 1.000000
v -0.500000 0.700000 1.000000
v -0.500000 0.600000 -1.000000
v -0.500000 0.700000 -1.000000
v 0.500000 0.600000 1.000000
v 0.500000 0.700000 1.000000
v 0.500000 0.600000 -1.000000
v 0.500000 0.700000 -1.000000
v 0.360000 0.000000 -0.860000
v 0.360000 0.600000 -0.860000
v 0.360000 0.000000 -0.940000
v 0.360000 0.600000 -0.940000
v 0.440000 0.000000 -0.860000
v 0.440000 0.600000 -0.860000
v 0.440000 0.000000 -0.940000
v 0.440000 0.600000 -0.940000
v -0.440000 0.000000 -0.860000
v -0.440000 0.600000 -0.860000
v -0.440000 0.000000 -0.940000
v -0.440000 0.600000 -0.940000
v -0.360000 0.000000 -0.860000
v -0.360000 0.600000 -0.860000
v -0.360000 0.000000 -0.940000
v -0.360000 0.600000 -0.940000
v 0.360000 0.000000 0.940000
v 0.360000 0.600000 0.940000
v 0.360000 0.000000 0.860000
v 0.360000 0.600000 0.860000
v 0.440000 0.000000 0.940000
v 0.440000 0.600000 0.940000
v 0.440000 0.000000 0.860000
v 0.440000 0.600000 0.860000
v -0.440000 0.000000 0.940000
v -0.440000 0.600000 0.940000
v -0.440000 0.000000 0.860000
v -0.440000 0.600000 0.860000
v -0.360000 0.000000 0.940000
v -0.360000 0.600000 0.940000
v -0.360000 0.000000 0.860000
v -0.360000 0.600000 0.860000
vn -1.0000 -0.0000 -0.0000
vn -0.0000 -0.0000 -1.0000
vn 1.0000 -0.0000 -0.0000
vn -0.0000 -0.0000 1.0000
vn -0.0000 -1.0000 -0.0000
vn -0.0000 1.0000 -0.0000
vt -1.453789 -4.412303
vt -1.617532 -1.137434
vt -1.617533 -4.412303
vt -1.453789 -1.137434
vt -1.617532 0.500000
vt -1.453789 0.500000
vt -1.617532 3.774869
vt -1.453789 3.774869
vt -1.617532 5.412304
vt -1.278396 -4.412303
vt 1.996472 -2.774869
vt -1.278396 -2.774869
vt -1.278396 -2.599475
vt 1.996472 -0.962042
vt -1.278396 -0.962042
vt -0.295935 1.311467
vt -1.278396 1.442461
vt -1.278396 1.311467
vt -0.295935 1.442461
vt -1.278396 1.573456
vt -0.295935 1.573456
vt -1.278396 1.704451
vt -0.295935 1.704451
vt -1.278396 1.835446
vt -0.295935 -0.655654
vt -1.278396 -0.524659
vt -1.278396 -0.655654
vt -0.295935 -0.524659
vt -1.278396 -0.393664
vt -0.295935 -0.393665
vt -1.278396 -0.262670
vt -0.295935 -0.786649
vt -1.278396 -0.786649
vt -0.295935 0.305707
vt -1.278396 0.436702
vt -1.278396 0.305707
vt -0.295935 -0.087277
vt -1.278396 0.043718
vt -1.278396 -0.087277
vt -0.295935 0.043718
vt -1.278396 0.174713
vt -0.295935 0.174713
vt -0.295935 0.874085
vt -1.278396 1.005079
vt -1.278396 0.874085
vt -0.295935 1.005079
vt -1.278396 1.136074
vt -0.295935 0.612095
vt -1.278396 0.743090
vt -1.278396 0.612095
vt -0.295935 0.743090
vt -1.453789 5.412304
vt 1.996472 -4.412304
vt 1.996472 -2.599476
vt -0.295935 1.835445
vt -0.295935 -0.262670
vt -0.295935 0.436702
vt -0.295935 1.136074
s 0
f 2/1/1 3/2/1 1/3/1
f 4/4/2 7/5/2 3/2/2
f 8/6/3 5/7/3 7/5/3
f 6/8/4 1/9/4 5/7/4
f 7/10/5 1/11/5 3/12/5
f 4/13/6 6/14/6 8/15/6
f 10/16/1 11/17/1 9/18/1
f 12/19/2 15/20/2 11/17/2
f 16/21/3 13/22/3 15/20/3
f 14/23/4 9/24/4 13/22/4
f 18/25/1 19/26/1 17/27/1
f 20/28/2 23/29/2 19/26/2
f 24/30/3 21/31/3 23/29/3
f 22/32/4 17/27/4 21/33/4
f 26/34/1 27/35/1 25/36/1
f 28/37/2 31/38/2 27/39/2
f 32/40/3 29/41/3 31/38/3
f 30/42/4 25/36/4 29/41/4
f 34/43/1 35/44/1 33/45/1
f 36/46/2 39/47/2 35/44/2
f 40/48/3 37/49/3 39/50/3
f 38/51/4 33/45/4 37/49/4
f 2/1/1 4/4/1 3/2/1
f 4/4/2 8/6/2 7/5/2
f 8/6/3 6/8/3 5/7/3
f 6/8/4 2/52/4 1/9/4
f 7/10/5 5/53/5 1/11/5
f 4/13/6 2/54/6 6/14/6
f 10/16/1 12/19/1 11/17/1
f 12/19/2 16/21/2 15/20/2
f 16/21/3 14/23/3 13/22/3
f 14/23/4 10/55/4 9/24/4
f 18/25/1 20/28/1 19/26/1
f 20/28/2 24/30/2 23/29/2
f 24/30/3 22/56/3 21/31/3
f 22/32/4 18/25/4 17/27/4
f 26/34/1 28/57/1 27/35/1
f 28/37/2 32/40/2 31/38/2
f 32/40/3 30/42/3 29/41/3
f 30/42/4 26/34/4 25/36/4
f 34/43/1 36/46/1 35/44/1
f 36/46/2 40/58/2 39/47/2
f 40/48/3 38/51/3 37/49/3
f 38/51/4 34/43/4 33/45/4
