# Blender 5.1.2
# www.blender.org
o Wall
v 3.000000 3.000000 -2.500000
v 3.000000 3.000000 1.500000
v 3.000000 0.000000 1.500000
v -2.000000 3.000000 -2.500000
v -2.000000 0.000000 -2.500000
v -2.000000 3.000000 1.500000
v -2.000000 0.000000 1.500000
v 6.000000 3.000000 1.500000
v 6.000000 0.000000 1.500000
v 6.000000 3.000000 -9.500000
v 6.000000 0.000000 -9.500000
v -4.000000 3.000000 -2.500000
v -4.000000 0.000000 -2.500000
v -8.000000 0.000000 -9.500000
v -8.000000 3.000000 -9.500000
v -4.000000 3.000000 -5.500000
v -4.000000 0.000000 -5.500000
v 3.000000 4.000000 -2.500000
v 3.000000 4.000000 1.500000
v -2.000000 4.000000 -2.500000
v 6.000000 4.000000 1.500000
v 6.000000 4.000000 -9.500000
v -4.000000 4.000000 -5.500000
v -4.000000 4.000000 -2.500000
v -8.000000 3.000000 -5.500000
v -8.000000 0.000000 -5.500000
v -8.000000 4.000000 -9.500000
v -8.000000 4.000000 -5.500000
vn -0.0000 -0.0000 -1.0000
vn 1.0000 -0.0000 -0.0000
vn -1.0000 -0.0000 -0.0000
vn -0.0000 -0.0000 1.0000
vt 7.750429 0.788133
vt 6.283479 -0.155278
vt 7.750429 -0.155278
vt 6.283479 1.157720
vt 5.004859 0.788133
vt 6.283479 0.788133
vt 9.172821 0.788133
vt 9.172821 -0.155278
vt 5.004859 -0.155278
vt 0.510999 0.788133
vt 0.510999 -0.155278
vt 9.935402 1.157720
vt 9.935402 0.788133
vt -5.261446 -0.155278
vt -5.261446 0.788133
vt 9.935402 -0.155278
vt -8.571388 1.157720
vt -9.812607 0.788132
vt -8.571390 0.788132
vt 0.510999 1.157720
vt -5.261446 1.157720
vt 7.589480 1.157720
vt 7.589479 0.788133
vt -6.916427 0.788133
vt -8.571390 -0.155279
vt -9.812607 -0.155279
vt 9.172821 1.157720
vt -6.916427 -0.155279
vt 5.004859 1.157720
vt -9.812605 1.157720
vt -6.916426 1.157720
s 0
f 6/1/1 3/2/1 7/3/1
f 19/4/1 8/5/1 2/6/1
f 4/7/2 7/3/2 5/8/2
f 9/9/3 10/10/3 11/11/3
f 24/12/1 4/7/1 12/13/1
f 8/5/1 3/2/1 2/6/1
f 14/14/4 10/10/4 15/15/4
f 13/16/1 4/7/1 5/8/1
f 23/17/2 12/18/2 16/19/2
f 15/15/4 22/20/4 27/21/4
f 18/22/2 2/6/2 1/23/2
f 27/21/2 25/24/2 15/15/2
f 17/25/2 12/18/2 13/26/2
f 20/27/1 1/23/1 4/7/1
f 25/24/1 23/17/1 16/19/1
f 14/14/2 25/24/2 26/28/2
f 26/28/1 16/19/1 17/25/1
f 21/29/3 10/10/3 8/5/3
f 6/1/1 2/6/1 3/2/1
f 19/4/1 21/29/1 8/5/1
f 4/7/2 6/1/2 7/3/2
f 9/9/3 8/5/3 10/10/3
f 24/12/1 20/27/1 4/7/1
f 8/5/1 9/9/1 3/2/1
f 14/14/4 11/11/4 10/10/4
f 13/16/1 12/13/1 4/7/1
f 23/17/2 24/30/2 12/18/2
f 15/15/4 10/10/4 22/20/4
f 18/22/2 19/4/2 2/6/2
f 27/21/2 28/31/2 25/24/2
f 17/25/2 16/19/2 12/18/2
f 20/27/1 18/22/1 1/23/1
f 25/24/1 28/31/1 23/17/1
f 14/14/2 15/15/2 25/24/2
f 26/28/1 25/24/1 16/19/1
f 21/29/3 22/20/3 10/10/3
